<?xml version="1.0" standalone="no"?>
<!DOCTYPE svg PUBLIC "-//W3C//DTD SVG 20010904//EN"
 "http://www.w3.org/TR/2001/REC-SVG-20010904/DTD/svg10.dtd">
<svg version="1.0" xmlns="http://www.w3.org/2000/svg"
 width="1024.000000pt" height="1024.000000pt" viewBox="0 0 1024.000000 1024.000000"
 preserveAspectRatio="xMidYMid meet">
<metadata>
Created by potrace 1.14, written by Peter Selinger 2001-2017
</metadata>
<g transform="translate(0.000000,1024.000000) scale(0.100000,-0.100000)"
fill="#000000" stroke="none">
<path d="M3375 9118 c-59 -7 -110 -18 -184 -39 -46 -13 -174 -83 -221 -120
-100 -79 -198 -204 -260 -334 -50 -106 -107 -291 -127 -415 -2 -14 -6 -38 -9
-55 -6 -39 -6 -373 0 -383 2 -4 7 -36 11 -72 7 -76 46 -241 82 -355 26 -79
110 -291 123 -310 4 -5 22 -37 40 -70 83 -152 215 -311 371 -450 39 -35 134
-105 142 -105 3 0 29 -16 58 -35 30 -19 57 -35 61 -35 5 0 27 -9 51 -19 291
-134 672 -53 887 187 68 75 77 87 118 155 89 147 169 399 188 591 15 156 -4
436 -37 561 -6 22 -13 51 -15 65 -16 96 -134 413 -176 473 -11 15 -17 27 -13
27 6 0 2 6 -78 132 -86 133 -223 284 -343 378 -21 17 -46 36 -54 43 -34 28
-149 94 -209 119 -145 62 -266 81 -406 66z"/>
<path d="M6709 9114 c-42 -6 -84 -14 -95 -18 -10 -3 -22 -6 -26 -6 -21 -1
-175 -74 -225 -106 -157 -100 -349 -281 -429 -405 -16 -24 -31 -46 -34 -49
-10 -9 -64 -102 -102 -175 -62 -122 -133 -301 -154 -390 -1 -5 -12 -48 -24
-95 -56 -212 -71 -532 -35 -710 3 -14 7 -41 10 -61 10 -72 68 -247 115 -345
155 -322 401 -487 745 -499 53 -1 182 19 247 40 50 16 237 110 248 125 3 3 32
25 65 48 58 40 218 197 280 274 98 122 186 272 250 429 37 91 80 222 99 304 9
39 21 88 26 110 27 112 35 201 35 390 0 229 -27 371 -112 584 -66 167 -171
311 -300 410 -154 118 -387 176 -584 145z"/>
<path d="M1289 6824 c-91 -14 -184 -45 -259 -86 -30 -17 -66 -36 -80 -44 -37
-19 -147 -129 -178 -178 -15 -22 -29 -43 -32 -46 -13 -11 -63 -109 -90 -175
-45 -112 -45 -114 -54 -155 -3 -14 -11 -47 -18 -75 -14 -56 -17 -301 -5 -385
12 -81 57 -248 83 -307 13 -29 21 -53 18 -53 -6 0 79 -165 88 -168 5 -2 8 -8
8 -14 0 -9 56 -96 69 -108 4 -3 19 -22 34 -42 110 -148 406 -361 545 -393 9
-2 42 -11 72 -19 102 -29 224 -38 306 -24 23 4 59 9 80 12 216 29 412 166 538
375 47 79 114 231 122 281 3 14 7 33 10 42 41 136 38 393 -8 563 -5 22 -12 51
-15 65 -5 33 -36 116 -80 215 -86 196 -201 344 -383 490 -236 190 -507 271
-771 229z"/>
<path d="M8730 6828 c-101 -14 -165 -33 -265 -78 -65 -29 -190 -103 -212 -126
-8 -8 -18 -14 -23 -14 -19 0 -229 -220 -276 -290 -95 -139 -174 -315 -214
-478 -29 -118 -35 -177 -34 -347 1 -118 6 -168 22 -235 74 -290 236 -516 450
-624 164 -83 369 -110 562 -73 169 32 396 156 549 300 219 206 362 496 414
837 19 128 12 295 -19 418 -9 35 -17 68 -18 75 -1 7 -10 29 -19 51 -9 21 -17
43 -17 48 0 16 -62 132 -103 193 -50 72 -172 195 -218 220 -135 72 -235 109
-329 121 -79 10 -186 11 -250 2z"/>
<path d="M4870 5664 c-69 -12 -145 -27 -170 -33 -48 -10 -251 -79 -312 -105
-21 -9 -40 -16 -43 -16 -13 1 -322 -164 -410 -220 -166 -103 -497 -342 -556
-399 -9 -9 -29 -27 -45 -40 -244 -204 -526 -486 -680 -680 -10 -13 -26 -31
-35 -40 -8 -9 -58 -72 -110 -141 -333 -437 -573 -873 -695 -1259 -14 -46 -28
-96 -30 -109 -3 -14 -7 -29 -10 -33 -5 -9 -30 -141 -50 -263 -20 -126 -6 -400
25 -478 6 -16 9 -28 6 -28 -7 0 74 -182 85 -190 4 -3 15 -20 24 -38 25 -48
171 -193 241 -240 164 -108 325 -167 570 -207 144 -24 498 -24 622 0 10 1 54
8 98 15 44 6 126 22 183 36 56 13 113 26 125 28 81 17 408 112 542 158 51 17
197 61 245 73 8 2 35 8 60 14 25 7 52 13 60 15 344 87 566 102 811 56 30 -6
65 -13 79 -15 22 -4 243 -57 293 -70 9 -3 25 -7 35 -9 33 -9 148 -44 357 -109
181 -57 360 -108 430 -122 11 -3 32 -7 47 -11 15 -3 30 -5 33 -5 2 0 19 -5 37
-10 57 -17 238 -45 368 -56 148 -12 451 -5 502 12 7 2 29 6 48 9 252 39 497
153 647 303 66 66 153 179 153 199 0 6 7 17 15 24 8 6 14 15 13 18 -1 4 6 25
16 47 38 86 70 255 70 370 0 46 -13 227 -18 252 -3 11 -8 43 -12 70 -14 97
-88 358 -129 458 -9 19 -16 38 -17 42 -1 7 -19 48 -95 213 -29 63 -130 251
-176 325 -70 115 -149 237 -157 245 -10 10 -50 69 -50 75 0 6 -229 309 -266
350 -14 17 -45 52 -68 79 -74 88 -149 168 -276 296 -232 233 -380 361 -640
552 -58 43 -110 82 -117 88 -7 5 -16 10 -22 10 -5 0 -11 3 -13 8 -9 21 -245
164 -423 255 -162 83 -407 179 -495 193 -14 3 -32 7 -40 10 -8 3 -62 15 -120
26 -159 31 -396 32 -560 2z"/>
</g>
</svg>
